<?xml version="1.0" encoding="iso-8859-1"?>
<!-- Uploaded to: SVG Repo, www.svgrepo.com, Generator: SVG Repo Mixer Tools -->
<svg version="1.1" id="Layer_1" xmlns="http://www.w3.org/2000/svg" xmlns:xlink="http://www.w3.org/1999/xlink" 
	 viewBox="0 0 512 512" xml:space="preserve">
<path d="M503.467,290.133H8.533c-4.693,0-8.533,3.84-8.533,8.533v102.4c0,4.693,3.84,8.533,8.533,8.533h494.933
	c4.693,0,8.533-3.84,8.533-8.533v-102.4C512,293.973,508.16,290.133,503.467,290.133z M494.933,392.533H17.067V307.2h25.6v17.067
	c0,4.693,3.84,8.533,8.533,8.533s8.533-3.84,8.533-8.533V307.2h34.133v34.133c0,4.693,3.84,8.533,8.533,8.533
	c4.693,0,8.533-3.84,8.533-8.533V307.2h34.133v17.067c0,4.693,3.84,8.533,8.533,8.533s8.533-3.84,8.533-8.533V307.2h34.133v34.133
	c0,4.693,3.84,8.533,8.533,8.533c4.693,0,8.533-3.84,8.533-8.533V307.2h34.133v17.067c0,4.693,3.84,8.533,8.533,8.533
	c4.693,0,8.533-3.84,8.533-8.533V307.2h34.133v34.133c0,4.693,3.84,8.533,8.533,8.533s8.533-3.84,8.533-8.533V307.2h34.133v17.067
	c0,4.693,3.84,8.533,8.533,8.533s8.533-3.84,8.533-8.533V307.2h34.133v34.133c0,4.693,3.84,8.533,8.533,8.533
	c4.693,0,8.533-3.84,8.533-8.533V307.2h34.133v17.067c0,4.693,3.84,8.533,8.533,8.533s8.533-3.84,8.533-8.533V307.2h25.6V392.533z"
	/>
<g>
	<rect x="17.067" y="307.2" style="fill:#F6981E;" width="25.6" height="17.067"/>
	<rect x="59.733" y="307.2" style="fill:#F6981E;" width="34.133" height="17.067"/>
	<rect x="110.933" y="307.2" style="fill:#F6981E;" width="34.133" height="17.067"/>
	<rect x="162.133" y="307.2" style="fill:#F6981E;" width="34.133" height="17.067"/>
	<rect x="213.333" y="307.2" style="fill:#F6981E;" width="34.133" height="17.067"/>
	<rect x="264.533" y="307.2" style="fill:#F6981E;" width="34.133" height="17.067"/>
	<rect x="315.733" y="307.2" style="fill:#F6981E;" width="34.133" height="17.067"/>
	<rect x="366.933" y="307.2" style="fill:#F6981E;" width="34.133" height="17.067"/>
	<rect x="418.133" y="307.2" style="fill:#F6981E;" width="34.133" height="17.067"/>
	<rect x="469.333" y="307.2" style="fill:#F6981E;" width="25.6" height="17.067"/>
	<path style="fill:#F6981E;" d="M494.933,324.267v68.267H460.8V332.8c4.693,0,8.533-3.84,8.533-8.533H494.933z"/>
</g>
<path style="fill:#FDB50D;" d="M460.8,332.8v59.733H17.067v-68.267h25.6c0,4.693,3.84,8.533,8.533,8.533s8.533-3.84,8.533-8.533
	h34.133v17.067c0,4.693,3.84,8.533,8.533,8.533c4.693,0,8.533-3.84,8.533-8.533v-17.067h34.133c0,4.693,3.84,8.533,8.533,8.533
	s8.533-3.84,8.533-8.533h34.133v17.067c0,4.693,3.84,8.533,8.533,8.533c4.693,0,8.533-3.84,8.533-8.533v-17.067h34.133
	c0,4.693,3.84,8.533,8.533,8.533c4.693,0,8.533-3.84,8.533-8.533h34.133v17.067c0,4.693,3.84,8.533,8.533,8.533
	s8.533-3.84,8.533-8.533v-17.067h34.133c0,4.693,3.84,8.533,8.533,8.533s8.533-3.84,8.533-8.533h34.133v17.067
	c0,4.693,3.84,8.533,8.533,8.533c4.693,0,8.533-3.84,8.533-8.533v-17.067h34.133C452.267,328.96,456.107,332.8,460.8,332.8z"/>
<path d="M8.533,102.4C3.814,102.4,0,106.214,0,110.933V256c0,4.719,3.814,8.533,8.533,8.533s8.533-3.814,8.533-8.533v-68.267v-76.8
	C17.067,106.214,13.252,102.4,8.533,102.4z"/>
<path d="M503.467,102.4c-4.719,0-8.533,3.814-8.533,8.533v76.8V256c0,4.719,3.814,8.533,8.533,8.533
	c4.719,0,8.533-3.814,8.533-8.533V110.933C512,106.214,508.186,102.4,503.467,102.4z"/>
<path d="M476.075,182.272l-39.68-51.2c-2.133-2.731-5.632-3.755-8.789-2.56c-3.157,1.195-5.205,4.437-5.205,8.021V179.2H89.6
	v-42.667c0-3.584-2.048-6.827-5.205-8.021s-6.656-0.256-8.789,2.56l-39.68,51.2c-1.195,1.621-1.792,3.499-1.792,5.461
	s0.597,3.925,1.792,5.461l39.68,51.2c1.536,1.963,3.755,3.072,6.059,3.072c0.939,0,1.792-0.171,2.731-0.512
	c3.157-1.195,5.205-4.437,5.205-8.021v-42.667h332.8v42.667c0,3.584,2.048,6.827,5.205,8.021c0.939,0.341,1.792,0.512,2.731,0.512
	c2.304,0,4.523-1.109,6.059-3.072l39.68-51.2c1.195-1.536,1.792-3.499,1.792-5.461S477.269,183.808,476.075,182.272z
	 M73.728,215.381l-21.333-27.648l21.333-27.648C73.728,160.085,73.728,215.381,73.728,215.381z M438.272,215.381v-55.296
	l21.333,27.648L438.272,215.381z"/>
<g>
	<polygon style="fill:#F9F9F9;" points="459.605,187.733 438.272,215.381 438.272,160.085 	"/>
	<polygon style="fill:#F9F9F9;" points="73.728,160.085 73.728,215.381 52.395,187.733 	"/>
</g>
</svg>